<svg width="18" height="19" viewBox="0 0 18 19" fill="none" xmlns="http://www.w3.org/2000/svg">
<g clip-path="url(#clip0)">
<path d="M8.87173 9.17065C10.0629 9.17065 11.0943 8.74342 11.9372 7.9005C12.7798 7.05771 13.2072 6.0265 13.2072 4.83517C13.2072 3.64426 12.78 2.61292 11.9371 1.76985C11.0941 0.9272 10.0628 0.499969 8.87173 0.499969C7.6804 0.499969 6.6492 0.9272 5.80641 1.76999C4.96362 2.61278 4.53625 3.64412 4.53625 4.83517C4.53625 6.0265 4.96362 7.05785 5.80641 7.90063C6.64948 8.74329 7.68082 9.17065 8.87173 9.17065ZM6.55238 2.51582C7.19907 1.86914 7.95767 1.55479 8.87173 1.55479C9.78566 1.55479 10.5444 1.86914 11.1912 2.51582C11.8379 3.16264 12.1524 3.92139 12.1524 4.83517C12.1524 5.74924 11.8379 6.50784 11.1912 7.15466C10.5444 7.80148 9.78566 8.11583 8.87173 8.11583C7.95795 8.11583 7.19934 7.80135 6.55238 7.15466C5.90556 6.50798 5.59108 5.74924 5.59108 4.83517C5.59108 3.92139 5.90556 3.16264 6.55238 2.51582Z" fill="#333333"/>
<path d="M16.4577 14.3411C16.4333 13.9904 16.3842 13.6078 16.3118 13.2038C16.2388 12.7967 16.1447 12.4119 16.0321 12.0602C15.9156 11.6967 15.7576 11.3377 15.5619 10.9937C15.359 10.6367 15.1206 10.3257 14.8531 10.0699C14.5734 9.80225 14.2309 9.58705 13.8348 9.43008C13.4401 9.27394 13.0027 9.19484 12.5349 9.19484C12.3511 9.19484 12.1734 9.27023 11.8302 9.49367C11.619 9.63141 11.3719 9.79071 11.0962 9.9669C10.8604 10.1171 10.541 10.2579 10.1464 10.3853C9.76149 10.5099 9.37065 10.5731 8.98476 10.5731C8.59914 10.5731 8.2083 10.5099 7.82309 10.3853C7.42896 10.258 7.10939 10.1173 6.87401 9.96704C6.60086 9.7925 6.35367 9.63319 6.1393 9.49353C5.79639 9.2701 5.61868 9.1947 5.43494 9.1947C4.96692 9.1947 4.52966 9.27394 4.13512 9.43022C3.73933 9.58691 3.3967 9.80211 3.11668 10.07C2.84917 10.326 2.61076 10.6368 2.40807 10.9937C2.21265 11.3377 2.05444 11.6966 1.93799 12.0603C1.82552 12.412 1.73145 12.7967 1.65839 13.2038C1.58588 13.6072 1.53685 13.99 1.51254 14.3415C1.48865 14.6853 1.47656 15.043 1.47656 15.4044C1.47656 16.3441 1.77525 17.1047 2.36426 17.6657C2.94598 18.2193 3.71558 18.5 4.65175 18.5H13.3189C14.2548 18.5 15.0244 18.2193 15.6062 17.6657C16.1954 17.1051 16.494 16.3442 16.494 15.4043C16.4939 15.0416 16.4817 14.6839 16.4577 14.3411ZM14.8789 16.9015C14.4945 17.2673 13.9842 17.4452 13.3187 17.4452H4.65175C3.98611 17.4452 3.4758 17.2673 3.09155 16.9016C2.71458 16.5428 2.53139 16.0529 2.53139 15.4044C2.53139 15.0672 2.54251 14.7341 2.56476 14.4144C2.58646 14.1008 2.63081 13.7562 2.69659 13.3901C2.76155 13.0285 2.84422 12.6892 2.94255 12.382C3.0369 12.0874 3.16557 11.7957 3.32515 11.5147C3.47745 11.2469 3.65268 11.0172 3.84604 10.8321C4.0269 10.6589 4.25487 10.5172 4.52348 10.4109C4.77191 10.3126 5.0511 10.2587 5.35419 10.2506C5.39113 10.2703 5.45691 10.3078 5.56348 10.3772C5.78032 10.5186 6.03026 10.6798 6.30656 10.8562C6.61803 11.0548 7.0193 11.2342 7.49872 11.3889C7.98885 11.5474 8.48872 11.6279 8.98489 11.6279C9.48106 11.6279 9.98108 11.5474 10.4709 11.3891C10.9508 11.234 11.3519 11.0548 11.6638 10.856C11.9465 10.6752 12.1895 10.5187 12.4063 10.3772C12.5129 10.3079 12.5787 10.2703 12.6156 10.2506C12.9188 10.2587 13.198 10.3126 13.4466 10.4109C13.7151 10.5172 13.943 10.659 14.1239 10.8321C14.3172 11.0171 14.4925 11.2468 14.6448 11.5149C14.8045 11.7957 14.9333 12.0875 15.0275 12.3818C15.126 12.6895 15.2088 13.0287 15.2736 13.39C15.3392 13.7568 15.3837 14.1015 15.4054 14.4146V14.4149C15.4278 14.7333 15.4391 15.0662 15.4392 15.4044C15.4391 16.0531 15.2559 16.5428 14.8789 16.9015Z" fill="#333333"/>
</g>
<defs>
<clipPath id="clip0">
<rect width="18" height="18" fill="white" transform="translate(0 0.499969)"/>
</clipPath>
</defs>
</svg>
