<svg width="159" height="65" viewBox="0 0 159 65" fill="none" xmlns="http://www.w3.org/2000/svg">
<rect x="79.1709" y="65" width="25.9804" height="2.30387" rx="1.15193" transform="rotate(-135 79.1709 65)" fill="#E72500" fill-opacity="0.5"/>
<rect x="77.6001" y="63.3709" width="25.9804" height="2.30387" rx="1.15193" transform="rotate(-45 77.6001 63.3709)" fill="#E72500" fill-opacity="0.5"/>
<rect x="80.8" width="63" height="2.30387" rx="1.15193" transform="rotate(90 80.8 0)" fill="#E72500" fill-opacity="0.5"/>
<rect x="139.971" y="65" width="25.9804" height="2.30387" rx="1.15193" transform="rotate(-135 139.971 65)" fill="#E72500" fill-opacity="0.5"/>
<rect x="138.4" y="63.3709" width="25.9804" height="2.30387" rx="1.15193" transform="rotate(-45 138.4 63.3709)" fill="#E72500" fill-opacity="0.5"/>
<rect x="141.6" width="63" height="2.30387" rx="1.15193" transform="rotate(90 141.6 0)" fill="#E72500" fill-opacity="0.5"/>
<rect x="18.3708" y="65" width="25.9804" height="2.30387" rx="1.15193" transform="rotate(-135 18.3708 65)" fill="#E72500" fill-opacity="0.5"/>
<rect x="16.8" y="63.3709" width="25.9804" height="2.30387" rx="1.15193" transform="rotate(-45 16.8 63.3709)" fill="#E72500" fill-opacity="0.5"/>
<rect x="20" width="63" height="2.30387" rx="1.15193" transform="rotate(90 20 0)" fill="#E72500" fill-opacity="0.5"/>
</svg>
