<svg width="16" height="16" viewBox="0 0 16 16" fill="none" xmlns="http://www.w3.org/2000/svg">
<path d="M15.3751 0H10.7568C10.4116 0 10.1318 0.279813 10.1318 0.625C10.1318 0.970188 10.4116 1.25 10.7568 1.25H13.8662L8.85621 6.26006C8.61212 6.50416 8.61212 6.89988 8.85621 7.14394C9.10027 7.388 9.49599 7.38803 9.74009 7.14394L14.7501 2.13388V5.24334C14.7501 5.58853 15.03 5.86834 15.3751 5.86834C15.7203 5.86834 16.0001 5.58853 16.0001 5.24334V0.625C16.0001 0.284844 15.7237 0 15.3751 0Z" fill="#333333"/>
<path d="M7.14394 8.85607C6.89984 8.61201 6.50413 8.61198 6.26006 8.85607L1.25 13.8661V10.7567C1.25 10.4115 0.970187 10.1317 0.625 10.1317C0.279813 10.1317 0 10.4115 0 10.7567V15.375C0 15.7146 0.276656 16 0.625 16H5.24337C5.58856 16 5.86837 15.7202 5.86837 15.375C5.86837 15.0298 5.58856 14.75 5.24337 14.75H2.13387L7.14394 9.73994C7.38803 9.49585 7.38803 9.10013 7.14394 8.85607Z" fill="#333333"/>
</svg>
