<svg width="19" height="19" viewBox="0 0 19 19" fill="none" xmlns="http://www.w3.org/2000/svg">
<g clip-path="url(#clip0)">
<path d="M19 7.12499H15.7737L12.3841 1.47568C12.216 1.19505 11.8513 1.10343 11.5695 1.27216C11.2882 1.4409 11.1972 1.80559 11.366 2.08682L14.3888 7.12499H4.6112L7.63409 2.08678C7.80283 1.80555 7.7118 1.44086 7.43058 1.27212C7.14819 1.10339 6.78466 1.19501 6.61592 1.47564L3.22637 7.12495H0V8.31246H1.28869L2.79712 16.3588C2.95482 17.2013 3.6912 17.8125 4.54824 17.8125H14.4518C15.3088 17.8125 16.0452 17.2013 16.2023 16.3594L17.7113 8.31246H19C19 8.31246 19 7.12499 19 7.12499ZM15.0351 16.1408C14.9829 16.4215 14.7376 16.625 14.4518 16.625H4.54824C4.26237 16.625 4.01712 16.4215 3.96436 16.1403L2.4965 8.31246H16.5035L15.0351 16.1408Z" fill="#333333"/>
</g>
<defs>
<clipPath id="clip0">
<rect width="19" height="19" fill="white"/>
</clipPath>
</defs>
</svg>
