<svg width="18" height="17" viewBox="0 0 18 17" fill="none" xmlns="http://www.w3.org/2000/svg">
<path d="M8.99998 16.4986C8.74373 16.4986 8.49667 16.4058 8.30414 16.2371C7.57698 15.6013 6.87592 15.0038 6.25739 14.4767L6.25423 14.474C4.4408 12.9286 2.87484 11.594 1.78527 10.2794C0.567305 8.80969 0 7.41622 0 5.89393C0 4.41489 0.507155 3.05039 1.42795 2.0516C2.35972 1.041 3.63825 0.484406 5.02843 0.484406C6.06746 0.484406 7.01901 0.812896 7.85658 1.46068C8.27928 1.78766 8.66243 2.18783 8.99998 2.65461C9.33767 2.18783 9.72069 1.78766 10.1435 1.46068C10.9811 0.812896 11.9326 0.484406 12.9717 0.484406C14.3617 0.484406 15.6404 1.041 16.5722 2.0516C17.4929 3.05039 18 4.41489 18 5.89393C18 7.41622 17.4328 8.80969 16.2148 10.2792C15.1253 11.594 13.5594 12.9285 11.7463 14.4737C11.1267 15.0016 10.4245 15.6001 9.69569 16.2374C9.50329 16.4058 9.2561 16.4986 8.99998 16.4986ZM5.02843 1.53882C3.93626 1.53882 2.93293 1.9747 2.20303 2.76626C1.46228 3.56977 1.05427 4.68049 1.05427 5.89393C1.05427 7.17424 1.53012 8.31929 2.59703 9.60661C3.62823 10.8509 5.16205 12.158 6.93799 13.6715L6.94129 13.6743C7.56215 14.2034 8.26596 14.8033 8.99847 15.4438C9.73538 14.802 10.4403 14.2012 11.0624 13.6713C12.8382 12.1578 14.3719 10.8509 15.4031 9.60661C16.4698 8.31929 16.9457 7.17424 16.9457 5.89393C16.9457 4.68049 16.5377 3.56977 15.7969 2.76626C15.0672 1.9747 14.0637 1.53882 12.9717 1.53882C12.1716 1.53882 11.437 1.79315 10.7884 2.29467C10.2104 2.74182 9.80775 3.30706 9.57168 3.70257C9.45028 3.90595 9.2366 4.02735 8.99998 4.02735C8.76336 4.02735 8.54968 3.90595 8.42828 3.70257C8.19235 3.30706 7.7897 2.74182 7.21155 2.29467C6.56295 1.79315 5.82837 1.53882 5.02843 1.53882Z" fill="#333333"/>
</svg>
