<svg width="19" height="20" viewBox="0 0 19 20" fill="none" xmlns="http://www.w3.org/2000/svg">
<path d="M9.13793 0C5.48829 0 2.5191 3.2493 2.5191 7.2432C2.5191 12.1998 8.4423 19.4763 8.69449 19.7836C8.93136 20.0723 9.34492 20.0718 9.58137 19.7836C9.83355 19.4763 15.7568 12.1998 15.7568 7.2432C15.7567 3.2493 12.7875 0 9.13793 0ZM9.13793 10.8875C7.3017 10.8875 5.80787 9.25266 5.80787 7.2432C5.80787 5.23375 7.30174 3.59898 9.13793 3.59898C10.9741 3.59898 12.468 5.23379 12.468 7.24324C12.468 9.2527 10.9741 10.8875 9.13793 10.8875Z" fill="#666666"/>
</svg>
