<svg width="20" height="16" viewBox="0 0 20 16" fill="none" xmlns="http://www.w3.org/2000/svg">
<path d="M17.4763 0.5H2.62719C1.68238 0.5 0.913818 1.34107 0.913818 2.37501V13.625C0.913818 14.659 1.68238 15.5 2.62719 15.5H17.4763C18.4211 15.5 19.1897 14.659 19.1897 13.625V2.37501C19.1897 1.34107 18.4211 0.5 17.4763 0.5ZM17.4763 1.74999C17.5539 1.74999 17.6277 1.76761 17.6952 1.79838L10.0517 9.04798L2.40825 1.79838C2.47574 1.76765 2.54956 1.74999 2.62715 1.74999H17.4763ZM17.4763 14.25H2.62719C2.31208 14.25 2.05605 13.9699 2.05605 13.625V3.11901L9.6775 10.3474C9.78516 10.4493 9.91846 10.5 10.0517 10.5C10.185 10.5 10.3183 10.4494 10.426 10.3474L18.0474 3.11901V13.625C18.0474 13.9699 17.7914 14.25 17.4763 14.25Z" fill="#666666" stroke="#666666" stroke-width="0.5"/>
</svg>
