<svg width="19" height="20" viewBox="0 0 19 20" fill="none" xmlns="http://www.w3.org/2000/svg">
<path d="M14.3866 0.559917V0.557851C14.0622 0.200981 13.6212 0.000206612 13.1613 0H5.1127C4.15676 0.00340909 3.38263 0.850568 3.37952 1.89669V18.1012C3.37971 18.6046 3.56317 19.0871 3.88928 19.4421C4.21321 19.7985 4.6534 19.9992 5.1127 20H13.1631C13.6224 19.9992 14.0626 19.7985 14.3866 19.4421C14.7122 19.0877 14.8956 18.6059 14.8963 18.1033V1.89876C14.8956 1.39613 14.7122 0.914411 14.3866 0.559917ZM9.13792 18.7128C8.87931 18.7128 8.6697 18.4834 8.6697 18.2004C8.6697 17.9174 8.87931 17.688 9.13792 17.688C9.39653 17.688 9.60615 17.9174 9.60615 18.2004C9.60615 18.4834 9.39653 18.7128 9.13792 18.7128ZM13.52 15.4959C13.52 16.1805 13.0128 16.7355 12.3872 16.7355H5.88678C5.26115 16.7355 4.75398 16.1805 4.75398 15.4959V3.41942C4.75398 2.73476 5.26115 2.17975 5.88678 2.17975H12.3891C13.0147 2.17975 13.5219 2.73476 13.5219 3.41942L13.52 15.4959Z" fill="#666666"/>
</svg>
