<svg width="50" height="50" viewBox="0 0 50 50" fill="none" xmlns="http://www.w3.org/2000/svg">
<circle cx="25" cy="25" r="25" fill="#333333"/>
<path d="M24.9183 11C16.485 11 12 16.269 12 22.0142C12 24.6787 13.527 28.0014 15.9715 29.0552C16.3426 29.2183 16.5446 29.1489 16.6273 28.8133C16.7004 28.5583 17.0215 27.3301 17.1773 26.7507C17.2254 26.5651 17.2004 26.4038 17.0465 26.2294C16.2349 25.3144 15.5907 23.6474 15.5907 22.0836C15.5907 18.0766 18.8582 14.1858 24.4183 14.1858C29.2263 14.1858 32.59 17.2309 32.59 21.5867C32.59 26.5088 29.9187 29.914 26.4473 29.914C24.526 29.914 23.0951 28.4439 23.549 26.6251C24.0971 24.4594 25.1722 22.1305 25.1722 20.5686C25.1722 19.1679 24.3606 18.0091 22.7027 18.0091C20.7468 18.0091 19.1602 19.8973 19.1602 22.4324C19.1602 24.0431 19.7448 25.1306 19.7448 25.1306C19.7448 25.1306 17.8101 32.751 17.4504 34.1742C16.8427 36.5837 17.5331 40.4857 17.5927 40.8214C17.6293 41.007 17.8428 41.0651 17.962 40.9132C18.1524 40.6695 20.491 37.4162 21.1469 35.0648C21.3853 34.2079 22.3643 30.7334 22.3643 30.7334C23.0085 31.8678 24.8683 32.8185 26.8492 32.8185C32.742 32.8185 37 27.7689 37 21.5024C36.9788 15.4946 31.7054 11 24.9183 11Z" fill="white"/>
</svg>
